# xmcd CD database file
#
# Track frame offsets:
#	150
#	10080
#	25985
#	40010
#	67560
#	87992
#	105545
#	125800
#	149360
#	167255
#
# Disc length: 2597 seconds
#
# Revision: 1
# Processed by: cddbd v1.5.1PL2 Copyright (c) Steve Scherf et al.
# Submitted via: CDex 1.40Release
#
DISCID=730a230a
DTITLE=Jiggs and Company - Virtual Bluze
DYEAR=1995
DGENRE=Blues
TTITLE0=Won't It Be Grand?
TTITLE1=Percy And Jose
TTITLE2=Lucille
TTITLE3=Summer Rain
TTITLE4=Didn't Tell Nobody
TTITLE5=Dirty Rat
TTITLE6=Power Of Love
TTITLE7=Uncle George
TTITLE8=I Believe
TTITLE9=Singing Convention
EXTD=YEAR: 1995 ID3G: 0
EXTT0=
EXTT1=
EXTT2=
EXTT3=
EXTT4=
EXTT5=
EXTT6=
EXTT7=
EXTT8=
EXTT9=
PLAYORDER=
